# xmcd
#
# Track frame offsets: 
#        150
#        17106
#        37178
#        51330
#        76858
#        98051
#        123426
#        143121
#        161318
#        178525
#
# Disc length: 2760 seconds
#
# Revision: 0
# Processed by: cddbd v1.5.2PL0 Copyright (c) Steve Scherf et al.
# Submitted via: ExactAudioCopyFreeDBPlugin 1.0
#
DISCID=7b0ac60a
DTITLE=Minnie Marks - Live In Stuttgart
DYEAR=2014
DGENRE=Blues
TTITLE0=Jack In The Box
TTITLE1=Who Loves You Baby
TTITLE2=Electric Spinach
TTITLE3=Little People
TTITLE4=Golden Food And Amber Fuels
TTITLE5=Liar, Liar Pants On Fire
TTITLE6=60 - 70 Love
TTITLE7=Running With Scissors
TTITLE8=Guitar And A Bicycle
TTITLE9=Voodoo And Honey
EXTD=
EXTT0=
EXTT1=
EXTT2=
EXTT3=
EXTT4=
EXTT5=
EXTT6=
EXTT7=
EXTT8=
EXTT9=
PLAYORDER=
